<?xml version="1.0" encoding="UTF-8" standalone="no"?>
<!-- Generator: Adobe Illustrator 23.0.1, SVG Export Plug-In . SVG Version: 6.00 Build 0)  -->

<svg
   version="1.1"
   id="Layer_1"
   x="0px"
   y="0px"
   viewBox="0 0 300 280.44754"
   xml:space="preserve"
   sodipodi:docname="Jeddah-Amanah-01.svg"
   width="300"
   height="280.44754"
   inkscape:version="1.3.2 (091e20e, 2023-11-25, custom)"
   xmlns:inkscape="http://www.inkscape.org/namespaces/inkscape"
   xmlns:sodipodi="http://sodipodi.sourceforge.net/DTD/sodipodi-0.dtd"
   xmlns="http://www.w3.org/2000/svg"
   xmlns:svg="http://www.w3.org/2000/svg"><defs
   id="defs29" /><sodipodi:namedview
   id="namedview29"
   pagecolor="#ffffff"
   bordercolor="#999999"
   borderopacity="1"
   inkscape:showpageshadow="2"
   inkscape:pageopacity="0"
   inkscape:pagecheckerboard="0"
   inkscape:deskcolor="#d1d1d1"
   inkscape:zoom="0.626"
   inkscape:cx="188.4984"
   inkscape:cy="214.05751"
   inkscape:window-width="1500"
   inkscape:window-height="912"
   inkscape:window-x="-8"
   inkscape:window-y="-8"
   inkscape:window-maximized="1"
   inkscape:current-layer="Layer_1" />
<style
   type="text/css"
   id="style1">
	.st0{fill:none;}
	.st1{fill:#402F82;}
	.st2{fill:url(#SVGID_1_);}
	.st3{fill:url(#SVGID_2_);}
	.st4{fill:#FFFFFF;}
	.st5{fill:#06A9B6;}
</style>















<linearGradient
   id="SVGID_1_"
   gradientUnits="userSpaceOnUse"
   x1="281.93481"
   y1="134.1003"
   x2="283.37479"
   y2="134.1003"
   gradientTransform="matrix(0,253.66,-253.66,0,34685.949,-71232.094)">
	<stop
   offset="0"
   style="stop-color:#06A9B6"
   id="stop11" />
	<stop
   offset="0.2"
   style="stop-color:#06A9B6"
   id="stop12" />
	<stop
   offset="0.37"
   style="stop-color:#1D78A1"
   id="stop13" />
	<stop
   offset="0.54"
   style="stop-color:#305090"
   id="stop14" />
	<stop
   offset="0.67"
   style="stop-color:#3C3886"
   id="stop15" />
	<stop
   offset="0.75"
   style="stop-color:#402F82"
   id="stop16" />
	<stop
   offset="1"
   style="stop-color:#402F82"
   id="stop17" />
</linearGradient>

<linearGradient
   id="SVGID_2_"
   gradientUnits="userSpaceOnUse"
   x1="281.93481"
   y1="134.661"
   x2="283.37479"
   y2="134.661"
   gradientTransform="matrix(0,253.66,-253.66,0,34685.949,-71232.094)">
	<stop
   offset="0"
   style="stop-color:#06A9B6"
   id="stop18" />
	<stop
   offset="0.2"
   style="stop-color:#06A9B6"
   id="stop19" />
	<stop
   offset="0.37"
   style="stop-color:#1D78A1"
   id="stop20" />
	<stop
   offset="0.54"
   style="stop-color:#305090"
   id="stop21" />
	<stop
   offset="0.67"
   style="stop-color:#3C3886"
   id="stop22" />
	<stop
   offset="0.75"
   style="stop-color:#402F82"
   id="stop23" />
	<stop
   offset="1"
   style="stop-color:#402F82"
   id="stop24" />
</linearGradient>





<g
   id="g29"
   transform="matrix(0.65174886,0,0,0.65174886,-286.70432,-186.00912)"><path
     class="st2"
     d="m 500.8,650.2 h 338.4 c 33.7,0 61,-27.4 61,-61.1 V 483 c 0,-81.5 -57.2,-119.3 -63.7,-123.3 l -6.9,-4.2 c -10.4,-6.7 -23.8,-6.8 -34.3,-0.2 l -7.3,4.4 c -3.1,1.9 -17.9,11.6 -32.4,30.2 C 744.7,327.3 699.8,298 694,294.5 l -7.9,-4.8 c -4.9,-2.8 -10.4,-4.2 -16,-4.2 v 0 c -6,0 -12,1.6 -17.1,4.8 l -7,4.2 c -5.7,3.5 -50.6,32.8 -61.5,95.3 -14.6,-18.6 -29.6,-28.3 -32.7,-30.2 l -6.9,-4.2 c -10.4,-6.6 -23.7,-6.6 -34.1,0 l -7.1,4.3 c -6.5,4 -63.8,41.7 -63.8,123.4 v 106 c 0,33.6 27.3,61 60.9,61.1 z m 195.5,-69 V 417.9 c 0,-2 -0.1,-4.1 -0.2,-6.3 v -0.2 c 0,-0.1 0,-0.3 0,-0.4 -0.1,-1.8 -0.2,-3.6 -0.5,-5.4 -2.2,-19.7 -11.3,-38.1 -25.5,-51.9 -14.3,13.8 -23.3,32.1 -25.5,51.9 -0.2,1.8 -0.4,3.6 -0.5,5.4 0,0.2 0,0.4 0,0.6 -0.1,1.8 -0.2,3.8 -0.2,6.3 v 35.5 c 0,16.5 -13.2,30 -29.7,30.3 -0.6,0 -1.1,-0.4 -1.2,-1 0,0 0,0 0,-0.1 v -64.8 c 0,-66.5 47.1,-96 49.1,-97.1 l 7.5,-4.5 c 0.3,-0.2 0.8,-0.2 1.1,-0.1 l 7.4,4.5 c 2,1.2 49.1,30.5 49.1,97.1 v 162.2 c 0,4.5 3.6,8.1 8.1,8.2 h 95.1 c 4.5,0 8.1,-3.7 8.1,-8.2 v -97.1 c 0,-2.1 -0.1,-4.2 -0.2,-6.3 0,-0.1 0,-0.3 0,-0.4 v -0.2 c -0.1,-2 -0.3,-3.8 -0.5,-5.4 -3.3,-27.2 -17.3,-44.1 -25.6,-51.9 -8.1,7.6 -22.2,24.6 -25.5,51.9 -0.2,1.6 -0.3,3.4 -0.5,5.4 v 0.2 c 0,0.1 0,0.3 0,0.4 -0.1,2 -0.2,4.1 -0.2,6.3 v 64.8 c 0,0.6 -0.5,1.1 -1.1,1.1 0,0 0,0 0,0 -16.5,-0.3 -29.7,-13.8 -29.7,-30.3 l -0.1,-35.6 c 0,-64.9 44.2,-94 49.2,-97.1 l 7.4,-4.5 c 0.2,-0.1 0.4,-0.2 0.6,-0.2 0.3,0 0.5,0.1 0.7,0.2 l 7.3,4.4 c 2,1.2 49.1,30.8 49.1,97.1 v 106 c 0,16.7 -13.5,30.2 -30.2,30.3 H 614.1 c -0.6,0 -1.1,-0.5 -1.1,-1.1 0,0 0,0 0,0 0.2,-16.5 13.6,-29.8 30.1,-29.9 h 55.7 c -2.2,-1.3 -2.4,-3.5 -2.5,-6.8 z M 470.8,483.1 c 0,-66.2 47.1,-95.9 49.1,-97.1 l 7.4,-4.5 c 0.2,-0.1 0.4,-0.2 0.6,-0.2 0.2,0 0.4,0.1 0.6,0.2 l 7.3,4.4 c 2,1.2 49.1,30.4 49.1,97.1 v 135.2 c 0,0.6 -0.5,1.1 -1.1,1.1 0,0 0,0 0,0 h -83 C 484.1,619.2 470.7,605.7 470.7,589 Z"
     id="path17"
     style="fill:url(#SVGID_1_)" /><path
     class="st3"
     d="M 509.6,588.3 H 554 V 483.1 c 0,-2 0,-4.1 -0.2,-6.3 v -0.2 c 0,-0.2 0,-0.3 0,-0.5 -0.2,-2.1 -0.3,-3.8 -0.5,-5.3 -3.3,-27.2 -17.3,-44.1 -25.5,-51.9 -8.1,7.6 -22.2,24.6 -25.5,51.9 -0.2,1.7 -0.4,3.6 -0.5,5.4 v 0.5 c -0.2,2.3 -0.2,4.4 -0.2,6.4 v 97.1 c 0,4.5 3.6,8.1 8,8.1 z"
     id="path24"
     style="fill:url(#SVGID_2_)" /><path
     class="st4"
     d="m 613,618.2 c 0,0.6 0.5,1.1 1.1,1.1 0,0 0,0 0,0 h 225.1 c 16.7,-0.1 30.2,-13.6 30.2,-30.3 V 483 c 0,-66.4 -47.1,-95.9 -49.1,-97.1 l -7.3,-4.4 c -0.2,-0.1 -0.5,-0.2 -0.7,-0.2 -0.2,0 -0.4,0.1 -0.6,0.2 l -7.4,4.5 c -5,3.1 -49.2,32.3 -49.2,97.1 l 0.1,35.6 c 0,16.5 13.2,30 29.7,30.3 0.6,0 1.1,-0.5 1.1,-1.1 0,0 0,0 0,0 v -64.8 c 0,-2.3 0.1,-4.3 0.2,-6.3 0,-0.1 0,-0.2 0,-0.4 v -0.2 c 0.1,-2 0.3,-3.8 0.5,-5.4 3.3,-27.3 17.4,-44.2 25.5,-51.9 8.2,7.8 22.2,24.7 25.6,51.9 0.2,1.6 0.3,3.4 0.5,5.4 v 0.2 c 0,0.1 0,0.3 0,0.4 0.1,2.1 0.2,4.2 0.2,6.3 v 97.1 c 0,4.5 -3.6,8.1 -8.1,8.2 h -95 c -4.5,0 -8.1,-3.7 -8.1,-8.2 V 418 c 0,-66.7 -47.1,-96 -49.1,-97.1 l -7.4,-4.5 c -0.4,-0.2 -0.8,-0.2 -1.1,0.1 l -7.5,4.5 c -2,1.2 -49.1,30.6 -49.1,97.1 v 64.8 c 0,0.6 0.5,1.1 1.1,1.1 16.5,-0.3 29.7,-13.8 29.7,-30.3 v -35.5 c 0,-2.5 0.1,-4.5 0.2,-6.3 0,-0.2 0,-0.4 0,-0.6 0.1,-1.8 0.3,-3.6 0.5,-5.4 2.2,-19.7 11.2,-38.1 25.5,-51.9 14.3,13.8 23.3,32.1 25.5,51.9 0.3,1.8 0.4,3.6 0.5,5.4 0,0.1 0,0.3 0,0.4 v 0.2 c 0.1,2.2 0.2,4.3 0.2,6.3 v 163.3 c 0,3.2 0.2,5.4 2.4,7.1 h -55.5 c -16.6,-0.1 -30,13.2 -30.2,29.6 z"
     id="path25" /><path
     class="st4"
     d="m 500.8,619.3 h 83 c 0.6,0 1.1,-0.5 1.1,-1.1 0,0 0,0 0,0 V 483.1 c 0,-66.7 -47.1,-95.9 -49.1,-97.1 l -7.3,-4.4 c -0.2,-0.1 -0.4,-0.2 -0.6,-0.2 -0.2,0 -0.4,0 -0.6,0.2 l -7.4,4.5 c -2,1.2 -49.1,30.9 -49.1,97.1 v 106 c -0.1,16.5 13.4,30.1 30,30.1 z m 0.7,-136.2 c 0,-2.1 0,-4.2 0.2,-6.4 v -0.5 c 0.1,-1.8 0.3,-3.6 0.5,-5.4 3.3,-27.3 17.4,-44.2 25.5,-51.9 8.2,7.8 22.2,24.7 25.5,51.9 0.2,1.5 0.3,3.2 0.5,5.3 0,0.2 0,0.3 0,0.5 v 0.2 c 0.1,2.2 0.2,4.3 0.2,6.3 v 105.3 h -44.4 c -4.5,0 -8.1,-3.7 -8.1,-8.2 v -97.1 z"
     id="path26" /><path
     class="st5"
     d="m 485.2,302.8 c 0,9.6 7.8,17.4 17.4,17.4 9.6,0 17.4,-7.8 17.4,-17.4 0,-9.6 -7.8,-17.4 -17.4,-17.4 -9.6,0 -17.4,7.8 -17.4,17.4 z"
     id="path27" /><path
     class="st5"
     d="m 535.7,302.8 c 0,9.6 7.8,17.4 17.4,17.3 9.6,0 17.4,-7.8 17.3,-17.4 0,-9.6 -7.8,-17.3 -17.4,-17.3 -9.5,0 -17.3,7.7 -17.3,17.4 0,-0.1 0,0 0,0 z"
     id="path28" /><path
     class="st1"
     d="m 794.9,698.3 c 0,9.6 7.7,17.4 17.3,17.4 9.6,0 17.4,-7.7 17.4,-17.3 0,-9.6 -7.7,-17.4 -17.3,-17.4 0,0 0,0 -0.1,0 -9.5,0 -17.3,7.8 -17.3,17.3 z"
     id="path29" /></g>
</svg>
